<?xml version="1.0" encoding="utf-8"?>
<!-- Generator: Adobe Illustrator 24.1.1, SVG Export Plug-In . SVG Version: 6.00 Build 0)  -->
<svg version="1.1" id="Layer_1" xmlns="http://www.w3.org/2000/svg" xmlns:xlink="http://www.w3.org/1999/xlink" x="0px" y="0px"
	 viewBox="0 0 105 34" style="enable-background:new 0 0 105 34;" xml:space="preserve">
<style type="text/css">
	.st0{fill:#FFFFFF;}
</style>
<g>
	<g>
		<g>
			<path class="st0" d="M39.1,6.3h3l3.5,9.9h-2.9l-0.5-1.5H39l-0.4,1.5h-2.9L39.1,6.3z M39.6,12.8h2l-1-3.2h0L39.6,12.8z"/>
			<path class="st0" d="M54.4,5.6h2.7v10.7h-2.7V5.6z"/>
			<path class="st0" d="M58.4,5.6H61v3.8c0.5-0.6,1.3-1,2.1-1c1.7,0,2.9,1.3,2.9,4c0,2.7-1.2,4.1-2.8,4.1c-1,0-1.7-0.4-2.3-1
				l-0.2,0.9h-2.4V5.6z M62.2,14.5c0.8,0,1.1-0.9,1.1-2.1c0-1.3-0.3-2-1.1-2c-0.5,0-0.8,0.2-1.2,0.6v3
				C61.4,14.3,61.7,14.5,62.2,14.5z"/>
			<path class="st0" d="M70.7,8.3c2.3,0,4,1.6,4,4c0,2.6-1.6,4.1-4,4.1c-2.4,0-4-1.6-4-4.1C66.7,9.9,68.4,8.3,70.7,8.3z M70.7,14.5
				c0.9,0,1.3-0.8,1.3-2.2c0-1.3-0.5-2.1-1.3-2.1c-0.8,0-1.3,0.8-1.3,2.1C69.4,13.7,69.8,14.5,70.7,14.5z"/>
			<path class="st0" d="M75.6,8.5h2.5l0.2,1.1c0.6-1.1,1.3-1.3,2.2-1.3c0.3,0,0.6,0,0.9,0.1L81,10.8c-0.3-0.1-0.6-0.2-1.1-0.2
				c-0.7,0-1.2,0.4-1.6,1.2v4.4h-2.7V8.5z"/>
			<path class="st0" d="M82.3,15.7c-0.3-0.4-0.4-0.7-0.4-1.1c0-0.5,0.3-1,0.8-1.3c-0.7-0.5-1.1-1.2-1.1-2.1c0-1.7,1.5-2.8,3.5-2.8
				c0.9,0,1.7,0.2,2.3,0.7c0.5-0.4,1.2-0.6,2.3-0.6v1.6c-0.5,0-0.9,0-1.3,0.1c0.1,0.3,0.2,0.7,0.2,1.1c0,1.8-1.7,2.8-3.4,2.8
				c-0.4,0-0.8,0-1.1-0.1c-0.1,0.1-0.2,0.2-0.2,0.3c0,0.3,0.4,0.4,1.8,0.5c2.5,0.1,3.8,0.8,3.8,2.3c0,1.5-1.3,2.3-4.1,2.3
				c-2.4,0-4-0.6-4-2C81.3,16.5,81.6,16,82.3,15.7z M84,16.5c-0.2,0.2-0.3,0.4-0.3,0.6c0,0.4,0.4,0.6,1.6,0.6c1.3,0,1.7-0.2,1.7-0.5
				c0-0.4-0.3-0.5-1.6-0.5C84.9,16.7,84.4,16.6,84,16.5z M86,11.1c0-0.7-0.4-1.2-0.9-1.2c-0.6,0-0.9,0.5-0.9,1.2
				c0,0.7,0.4,1.1,0.9,1.1C85.7,12.3,86,11.8,86,11.1z"/>
			<path class="st0" d="M48.1,20.4c2.3,0,4,1.6,4,4c0,2.5-1.6,4.1-4,4.1c-2.4,0-4-1.6-4-4.1C44.1,22,45.8,20.4,48.1,20.4z
				 M48.1,26.6c0.9,0,1.3-0.9,1.3-2.2c0-1.3-0.5-2.1-1.3-2.1c-0.8,0-1.3,0.8-1.3,2.1C46.8,25.7,47.2,26.6,48.1,26.6z"/>
			<path class="st0" d="M53,20.6h2.6l0.1,0.8c0.6-0.5,1.4-0.9,2.2-0.9c1,0,1.6,0.4,2,1c0.8-0.7,1.5-1,2.4-1c1.6,0,2.4,1,2.4,2.8v5.2
				h-2.7v-5.2c0-0.5-0.2-0.8-0.6-0.8c-0.4,0-0.8,0.2-1.1,0.6c0,0.2,0,0.3,0,0.5v4.9h-2.7v-5.2c0-0.5-0.2-0.8-0.6-0.8
				c-0.4,0-0.9,0.3-1.1,0.7v5.3H53V20.6z"/>
			<path class="st0" d="M65.9,20.6h2.6l0.1,0.8c0.6-0.5,1.4-0.9,2.2-0.9c1,0,1.6,0.4,2,1c0.8-0.7,1.5-1,2.4-1c1.6,0,2.4,1,2.4,2.8
				v5.2h-2.7v-5.2c0-0.5-0.2-0.8-0.6-0.8c-0.4,0-0.8,0.2-1.1,0.6c0,0.2,0,0.3,0,0.5v4.9h-2.7v-5.2c0-0.5-0.2-0.8-0.6-0.8
				c-0.4,0-0.9,0.3-1.1,0.7v5.3h-2.7V20.6z"/>
			<path class="st0" d="M78.7,20.6h2.7v5.2c0,0.5,0.2,0.9,0.7,0.9c0.5,0,0.9-0.3,1.2-0.7v-5.3H86v7.7h-2.5l-0.1-0.8
				c-0.5,0.6-1.4,1-2.3,1c-1.7,0-2.4-1-2.4-2.8V20.6z"/>
			<path class="st0" d="M87.3,20.6h2.5l0.1,0.8c0.5-0.5,1.3-1,2.2-1c1.8,0,2.4,1,2.4,2.8v5.1h-2.7v-5.2c0-0.5-0.2-0.8-0.8-0.8
				c-0.4,0-0.9,0.3-1.2,0.7v5.3h-2.7V20.6z"/>
			<path class="st0" d="M99.5,20.4c2.2,0,3.7,1.4,3.7,3.5c0,0.4,0,0.8-0.1,1.1h-4.8c0.1,1,0.6,1.4,1.5,1.4c0.7,0,1.4-0.2,2.1-0.6
				l1.1,1.6c-1,0.8-2.2,1.1-3.4,1.1c-2.2,0-4-1.5-4-4.1C95.5,21.9,97.4,20.4,99.5,20.4z M98.3,23.7h2.4c0-0.8-0.3-1.4-1.1-1.4
				C99,22.2,98.4,22.7,98.3,23.7z"/>
			<path class="st0" d="M52.9,14.1v-2.9c0-1.7-0.9-2.9-3.3-2.9c-1,0-2.1,0.3-3.2,0.8c0,0-0.4,0.2-0.4,0.2l0.7,2c0,0,0.4-0.2,0.4-0.2
				c1-0.5,1.7-0.7,2.4-0.7c0.5,0,0.8,0.2,0.8,0.7v0.4c-3.3,0.3-4.4,1.4-4.4,2.9c0,1.2,0.9,2.1,2.3,2.1c1.1,0,1.8-0.4,2.4-1.1
				c0.5,0.8,1.2,1,2.9,1v-1.7C53.1,14.6,52.9,14.4,52.9,14.1z M50.3,14.1c-0.2,0.3-0.6,0.5-1.1,0.5c-0.4,0-0.7-0.3-0.7-0.6
				c0-0.7,0.7-1.1,1.8-1.1V14.1z"/>
		</g>
		<g>
			<path class="st0" d="M35.9,18.4h2.7v3.8h0l2.7-3.8h3l-3.4,4.7v0l3.7,5.1h-3.2l-2.8-4h0v4h-2.7V18.4z"/>
		</g>
	</g>
	<g>
		<g>
			<g>
				<path class="st0" d="M12.3,17.5c-0.3,0-0.6,0.3-0.6,0.6l0,4.2c0.4,0.1,0.7,0.2,1.1,0.2c0,0,0.1,0,0.1,0v-4.4
					C12.9,17.8,12.6,17.5,12.3,17.5z"/>
			</g>
			<g>
				<g>
					<path class="st0" d="M17.4,17.7c0-0.6-0.5-1-1.1-1c-0.6,0-1.1,0.5-1.1,1l0,0.1v4.2c0.4-0.1,0.7-0.2,1.1-0.2
						c0.4,0,0.7,0.1,1.1,0.2L17.4,17.7L17.4,17.7z"/>
				</g>
				<g>
					<path class="st0" d="M16.3,2C7.8,2,0.9,8.9,0.9,17.3c0,8.5,6.9,15.3,15.3,15.3c8.5,0,15.3-6.9,15.3-15.3
						C31.6,8.9,24.7,2,16.3,2z M21.5,8.1c0.1,0.2,0.5,0.2,0.5,0.6c0,0.1,0,0.2-0.1,0.3h-0.8C21.1,8.9,21,8.8,21,8.7
						C21,8.2,21.5,8.3,21.5,8.1z M19.5,7.8c0.1,0.3,0.7,0.2,0.7,0.7c0,0.1-0.1,0.3-0.2,0.4h-1c-0.1-0.1-0.2-0.2-0.2-0.4
						C18.8,8.1,19.4,8.1,19.5,7.8z M15.9,6.6c0-0.1-0.1-0.1-0.1-0.2c0-0.3,0.2-0.5,0.5-0.5c0.3,0,0.5,0.2,0.5,0.5
						c0,0.1,0,0.2-0.1,0.2c0.9,0.1,1.6,0.8,1.6,1.5c0,0.4-0.2,0.8-0.5,1h-2.9c-0.3-0.3-0.5-0.7-0.5-1C14.3,7.3,15,6.7,15.9,6.6z
						 M18,13h-0.9L17,10.7c0-0.4-0.3-0.7-0.7-0.7c-0.4,0-0.7,0.3-0.7,0.7L15.4,13h-0.9l0.3-3.5h2.9L18,13z M13,7.8
						c0.1,0.3,0.7,0.2,0.7,0.7c0,0.1-0.1,0.3-0.2,0.4h-1c-0.1-0.1-0.2-0.2-0.2-0.4C12.4,8.1,13,8.1,13,7.8z M11,8.1
						c0.1,0.2,0.5,0.2,0.5,0.6c0,0.1-0.1,0.2-0.1,0.3h-0.8c-0.1-0.1-0.1-0.2-0.1-0.3C10.5,8.3,10.9,8.3,11,8.1z M7,19.3
						c-1.1,0.4-2.2-0.2-2.6-1.2c-0.4-1.1,0.2-2.2,1.2-2.6c0.6-0.2,1.1-0.1,1.6,0.1c-0.2,0-0.4,0-0.6,0.1c-0.7,0.3-1.1,1-0.8,1.7
						c0.3,0.7,1,1.1,1.7,0.8c0.3-0.1,0.6-0.4,0.7-0.6C8.3,18.4,7.8,19.1,7,19.3z M10.5,9.9L10.5,9.9l0.1-0.6h0.8v0.6h1.2V9.3h1v0.6
						h0.8L14.1,13H8.4L10.5,9.9z M16.9,26.6c-0.4,0-0.7,0-0.7,0s-0.3,0-0.7,0c-0.9-0.1-1.8-0.2-2.6-0.5c1.1-0.1,2.1-0.7,3.3-0.7
						c1.2,0,2.1,0.6,3.3,0.7C18.7,26.4,17.8,26.5,16.9,26.6z M22.5,24c-0.3,0.4-0.7,0.7-1,1c-0.6,0.2-1.1,0.3-1.7,0.3
						c-1.2,0-2.3-0.7-3.5-0.7c-1.2,0-2.3,0.7-3.5,0.7c-0.6,0-1.2-0.2-1.7-0.3c-0.4-0.3-0.7-0.6-1-1c-0.1-0.1-0.2-0.2-0.3-0.4
						c1,0.1,2,0.7,3,0.7c1.2,0,2.3-0.7,3.5-0.7c1.2,0,2.3,0.7,3.5,0.7c1.1,0,2-0.5,3-0.7C22.7,23.7,22.6,23.9,22.5,24z M23.8,14.3v1
						h0c-0.7,0.6-0.9,1.5-0.9,2.6v4c0.1,0,0.3,0,0.4,0c0.1,0,0.2,0,0.3,0c-0.1,0.4-0.2,0.7-0.4,1c-1.2,0-2.2,0.7-3.5,0.7
						c-1.2,0-2.3-0.7-3.5-0.7c-1.2,0-2.3,0.7-3.5,0.7c-1.2,0-2.3-0.7-3.5-0.7c-0.2-0.3-0.3-0.7-0.4-1c0.1,0,0.2,0,0.4,0
						c0.1,0,0.3,0,0.4,0v-4c0-1.1-0.2-1.9-0.9-2.6h0v-1v-0.9h1.5v0.9h1.3v-0.9h1.5v0.9h1.3v-0.9h1.5v0.9h0.6h0.6v-0.9h1.5v0.9h1.3
						v-0.9h1.5v0.9h1.3v-0.9h1.5V14.3z M18.4,13l-0.3-3.1H19V9.3h1v0.6h1.2V9.3h0.8v0.6h0l2.1,3.1H18.4z M26.7,18.3l-0.6,1.4
						l-0.6-1.4l-1.5,0.2l1-1.2l-1-1.2l1.5,0.2l0.6-1.4l0.6,1.4l1.5-0.2l-1,1.2l1,1.2L26.7,18.3z"/>
				</g>
				<g>
					<path class="st0" d="M20.3,17.5c-0.3,0-0.6,0.3-0.6,0.6v4.4c0,0,0.1,0,0.1,0c0.4,0,0.7-0.1,1.1-0.2l0-4.2
						C20.9,17.8,20.6,17.5,20.3,17.5z"/>
					<g>
						<path class="st0" d="M20.2,16.3c-0.6,0-1.1,0.3-1.4,0.7c-0.3-1.2-1.3-2-2.6-2c-1.2,0-2.3,0.9-2.6,2c-0.3-0.4-0.9-0.7-1.4-0.7
							c-1,0-1.8,0.8-1.8,1.7v4c0.1,0,0.3,0.1,0.4,0.1v-2.8V18c0-0.7,0.6-1.3,1.4-1.3c0.7,0,1.3,0.6,1.4,1.3v0.2l0,1.1l0,3.1
							c0.1,0,0.3-0.1,0.4-0.1l0-4c0,0,0-0.1,0-0.1c0,0,0-0.1,0-0.1l0-0.4c0-1.2,1-2.2,2.2-2.2c1.2,0,2.2,1,2.2,2.2V18
							c0,0,0,0.1,0,0.1c0,0,0,0.1,0,0.1l0,4.1c0.1,0,0.3,0.1,0.4,0.1l0-3.1v-1.1V18c0-0.7,0.6-1.3,1.4-1.3c0.7,0,1.3,0.6,1.4,1.3
							l0,1.2v2.8c0.1,0,0.3-0.1,0.4-0.1l0-4C22,17.1,21.2,16.3,20.2,16.3z"/>
					</g>
				</g>
			</g>
		</g>
	</g>
</g>
</svg>
