<?xml version="1.0" encoding="utf-8"?>
<!-- Generator: Adobe Illustrator 24.1.1, SVG Export Plug-In . SVG Version: 6.00 Build 0)  -->
<svg version="1.1" id="Layer_1" xmlns="http://www.w3.org/2000/svg" xmlns:xlink="http://www.w3.org/1999/xlink" x="0px" y="0px"
	 viewBox="0 0 142 74" style="enable-background:new 0 0 142 74;" xml:space="preserve">
<style type="text/css">
	.st0{fill:#FFFFFF;}
	.st1{clip-path:url(#SVGID_2_);}
	.st2{clip-path:url(#SVGID_4_);fill:#EF7F24;}
</style>
<rect x="28" y="36" class="st0" width="79" height="16"/>
<g id="Artwork_1_5_">
	<g>
		<defs>
			<rect id="SVGID_1_" x="28.1" y="36.3" width="79.2" height="15.4"/>
		</defs>
		<clipPath id="SVGID_2_">
			<use xlink:href="#SVGID_1_"  style="overflow:visible;"/>
		</clipPath>
		<g class="st1">
			<defs>
				<rect id="SVGID_3_" x="28.1" y="36.3" width="79.2" height="15.4"/>
			</defs>
			<clipPath id="SVGID_4_">
				<use xlink:href="#SVGID_3_"  style="overflow:visible;"/>
			</clipPath>
			<path class="st2" d="M107.3,36.3H28.1v15.4h79.2V36.3z M39.2,38.7l-1.5,10.6h-2l0.9-5.3l-2,3.4h-0.4l-0.8-3.4l-1.1,5.3h-2
				l2.1-10.6l1.1,0l1.4,5.3l3-5.3L39.2,38.7z M46.4,38.7l-1.4,7.7c-0.2,1.1-0.6,1.9-1.1,2.4c-0.5,0.5-1.3,0.7-2.1,0.7
				c-0.4,0-0.7,0-1-0.1c-0.3-0.1-0.6-0.2-0.8-0.4c-0.2-0.2-0.4-0.4-0.6-0.7c-0.1-0.3-0.2-0.6-0.2-1c0-0.1,0-0.2,0-0.4
				c0-0.1,0-0.3,0.1-0.4l1.4-7.7h2.1l-1.4,7.8c0,0.1,0,0.1,0,0.2c0,0.1,0,0.2,0,0.3c0,0.2,0,0.3,0.1,0.5c0.1,0.1,0.3,0.2,0.6,0.2
				c0.3,0,0.5-0.1,0.7-0.3s0.2-0.5,0.3-0.8l1.4-7.8H46.4z M52.1,39.3L51.4,41c-0.5-0.4-1-0.7-1.5-0.7c-0.3,0-0.6,0.1-0.8,0.3
				c-0.2,0.2-0.3,0.4-0.3,0.7c0,0.3,0.1,0.6,0.3,1c0.2,0.3,0.4,0.7,0.7,1c0.1,0.2,0.3,0.4,0.5,0.6c0.2,0.2,0.3,0.5,0.4,0.7
				c0.1,0.3,0.2,0.5,0.3,0.8c0.1,0.3,0.1,0.6,0.1,0.9c0,0.4-0.1,0.8-0.2,1.2c-0.1,0.4-0.3,0.7-0.6,1c-0.3,0.3-0.6,0.5-0.9,0.7
				c-0.4,0.2-0.8,0.2-1.3,0.2c-0.5,0-1-0.1-1.4-0.3c-0.5-0.2-0.9-0.4-1.3-0.7l0.7-1.8c0.3,0.3,0.6,0.5,1,0.7c0.3,0.2,0.7,0.3,1,0.3
				c0.3,0,0.6-0.1,0.8-0.3s0.3-0.5,0.3-0.9c0-0.3-0.1-0.6-0.3-1c-0.2-0.3-0.4-0.7-0.7-1c-0.1-0.2-0.3-0.4-0.5-0.6
				c-0.2-0.2-0.3-0.5-0.4-0.7c-0.1-0.3-0.2-0.5-0.3-0.8c-0.1-0.3-0.1-0.6-0.1-0.9c0-0.5,0.1-0.9,0.2-1.2c0.1-0.4,0.4-0.7,0.6-0.9
				c0.3-0.3,0.6-0.5,0.9-0.6c0.4-0.1,0.8-0.2,1.2-0.2c0.5,0,0.9,0.1,1.3,0.2C51.6,38.9,51.9,39.1,52.1,39.3 M55.5,38.7l-1.9,10.6
				h-2.1l1.9-10.6H55.5z M62.7,38.7l-3.1,5.2l1.2,5.4h-2.2l-0.9-5.1l-0.9,5.1h-2.1l1.9-10.6h2.1L58,43.4l2.5-4.7H62.7z M67.9,39.3
				L67.1,41c-0.5-0.4-1-0.7-1.5-0.7c-0.3,0-0.6,0.1-0.8,0.3c-0.2,0.2-0.3,0.4-0.3,0.7c0,0.3,0.1,0.6,0.3,1c0.2,0.3,0.4,0.7,0.7,1
				c0.1,0.2,0.3,0.4,0.5,0.6c0.2,0.2,0.3,0.5,0.4,0.7c0.1,0.3,0.2,0.5,0.3,0.8c0.1,0.3,0.1,0.6,0.1,0.9c0,0.4-0.1,0.8-0.2,1.2
				c-0.1,0.4-0.3,0.7-0.6,1c-0.3,0.3-0.6,0.5-0.9,0.7c-0.4,0.2-0.8,0.2-1.3,0.2c-0.5,0-1-0.1-1.4-0.3c-0.5-0.2-0.9-0.4-1.3-0.7
				l0.7-1.8c0.3,0.3,0.6,0.5,1,0.7c0.3,0.2,0.7,0.3,1,0.3c0.3,0,0.6-0.1,0.8-0.3c0.2-0.2,0.3-0.5,0.3-0.9c0-0.3-0.1-0.6-0.3-1
				c-0.2-0.3-0.4-0.7-0.7-1c-0.1-0.2-0.3-0.4-0.5-0.6c-0.2-0.2-0.3-0.5-0.4-0.7c-0.1-0.3-0.2-0.5-0.3-0.8c-0.1-0.3-0.1-0.6-0.1-0.9
				c0-0.5,0.1-0.9,0.2-1.2c0.1-0.4,0.4-0.7,0.6-0.9c0.3-0.3,0.6-0.5,0.9-0.6c0.4-0.1,0.8-0.2,1.2-0.2c0.5,0,0.9,0.1,1.3,0.2
				C67.3,38.9,67.6,39.1,67.9,39.3 M74.1,38.7l-0.3,1.9h-1.6l-1.6,8.8h-2.1l1.6-8.8h-1.6l0.3-1.9H74.1z M79,49.3h-2L77,47.5h-1.8
				l-0.7,1.8h-2l4.4-10.7h1.7L79,49.3z M86.8,41.5c0,0.3,0,0.7-0.1,1c-0.1,0.3-0.2,0.6-0.3,0.9c-0.2,0.3-0.3,0.6-0.6,0.8
				c-0.2,0.3-0.5,0.5-0.8,0.7l0.5,4.4h-2.1l-0.3-3.8h-0.2h-0.2c0,0-0.1,0-0.2,0l-0.7,3.8h-2.1l1.9-10.5c0.2,0,0.5-0.1,0.8-0.1
				c0.3,0,0.7-0.1,1.1-0.1c0.5,0,1,0.1,1.4,0.2c0.4,0.2,0.7,0.4,1,0.6c0.3,0.3,0.5,0.6,0.6,0.9C86.7,40.7,86.8,41,86.8,41.5
				 M93.2,38.7l-0.3,1.9h-1.6l-1.6,8.8h-2.1l1.6-8.8h-1.6l0.3-1.9H93.2z M98.7,38.7l-0.3,1.9h-2.6l-0.4,2.4h2.2l-0.3,1.8H95
				l-0.5,2.7h2.6l-0.3,1.9h-4.6l1.9-10.6H98.7z M104.9,41.5c0,0.3,0,0.7-0.1,1c-0.1,0.3-0.2,0.6-0.4,0.9c-0.2,0.3-0.3,0.6-0.6,0.8
				c-0.2,0.3-0.5,0.5-0.8,0.7l0.5,4.4h-2.1l-0.3-3.8H101h-0.2c0,0-0.1,0-0.2,0l-0.7,3.8h-2.1l1.9-10.5c0.2,0,0.5-0.1,0.8-0.1
				c0.3,0,0.7-0.1,1.1-0.1c0.5,0,1,0.1,1.4,0.2c0.4,0.2,0.7,0.4,1,0.6c0.3,0.3,0.5,0.6,0.6,0.9S104.9,41,104.9,41.5 M102.7,42.5
				c0.1-0.3,0.1-0.6,0.1-0.9c0-0.4-0.1-0.7-0.3-0.9c-0.2-0.2-0.4-0.3-0.8-0.3c-0.1,0-0.1,0-0.2,0c0,0,0,0-0.1,0l-0.6,3.4h0
				c0,0,0,0,0,0c0,0,0,0,0,0c0.3,0,0.5-0.1,0.7-0.2c0.2-0.1,0.4-0.3,0.6-0.5C102.4,43,102.6,42.7,102.7,42.5 M84.6,42.5
				c0.1-0.3,0.1-0.6,0.1-0.9c0-0.4-0.1-0.7-0.3-0.9c-0.2-0.2-0.4-0.3-0.8-0.3c-0.1,0-0.1,0-0.2,0c0,0,0,0-0.1,0l-0.6,3.4h0
				c0,0,0,0,0,0c0,0,0,0,0,0c0.3,0,0.5-0.1,0.7-0.2c0.2-0.1,0.4-0.3,0.6-0.5C84.4,43,84.5,42.7,84.6,42.5 M75.8,45.8h1.1v-3.1
				L75.8,45.8z"/>
		</g>
	</g>
</g>
</svg>
