<?xml version="1.0" encoding="utf-8"?>
<!-- Generator: Adobe Illustrator 24.1.1, SVG Export Plug-In . SVG Version: 6.00 Build 0)  -->
<svg version="1.1" id="Layer_1" xmlns="http://www.w3.org/2000/svg" xmlns:xlink="http://www.w3.org/1999/xlink" x="0px" y="0px"
	 viewBox="0 0 112 18" style="enable-background:new 0 0 112 18;" xml:space="preserve">
<style type="text/css">
	.st0{fill:#FFFFFF;}
</style>
<g>
	<g>
		<polygon class="st0" points="4.4,8.6 1.3,3.4 1.3,16.1 4.4,16.1 		"/>
		<polygon class="st0" points="12.3,16.1 4.2,2.6 1.3,2.6 9.4,16.1 		"/>
		<polygon class="st0" points="9.2,10.2 12.3,15.3 12.3,2.6 9.2,2.6 		"/>
	</g>
	<g>
		<path class="st0" d="M19.5,2.6c-1.7,0.1-3.1,0.7-4.3,2c-1.3,1.3-1.9,2.9-1.9,4.8c0,1.9,0.6,3.5,1.9,4.8c1.2,1.3,2.6,1.9,4.3,2
			v-2.5c-0.8-0.1-1.5-0.5-2-1.3c-0.7-0.8-1-1.9-1-3.1c0-1.2,0.3-2.2,1-3.1c0.6-0.7,1.3-1.2,2-1.2V2.6z"/>
		<path class="st0" d="M20,16.1c1.7-0.1,3.1-0.7,4.4-2c1.3-1.3,1.9-2.9,1.9-4.8c0-1.9-0.6-3.5-1.9-4.8c-1.2-1.3-2.7-1.9-4.4-2V5
			c0.9,0,1.6,0.5,2.2,1.3c0.7,0.8,1,1.9,1,3.1c0,1.2-0.3,2.2-1,3.1c-0.6,0.8-1.4,1.2-2.2,1.3V16.1z"/>
	</g>
	<g>
		<rect x="27.2" y="2.6" class="st0" width="3.1" height="13.6"/>
		<path class="st0" d="M36.8,9.6c0.6-0.8,0.9-1.7,0.9-2.8V6.7c0-0.9-0.3-1.8-0.9-2.7c-0.8-1-2.1-1.5-4-1.5h-2.2v2.4h2.2
			c0.9,0,1.5,0.6,1.7,1.6v0.2c0,0.9-0.5,1.6-1.4,1.9h-2.5v2.5c1.5,0,2.4,0.1,2.8,0.2c0.4,0.2,0.7,0.6,0.8,1c0.3,1.7,0.4,2.6,0.5,2.7
			c0.3,0.8,0.4,1.2,0.6,1.2h3.2c-0.3-0.3-0.5-0.6-0.6-0.9c-0.1-0.3-0.3-1.2-0.5-2.4l-0.1-0.5c-0.1-0.7-0.2-1.1-0.2-1.2
			c-0.2-0.5-0.5-0.8-0.7-1.1C36.6,9.9,36.7,9.8,36.8,9.6z"/>
	</g>
	<g>
		<rect x="39.4" y="2.6" class="st0" width="3.1" height="13.6"/>
		<path class="st0" d="M46.9,12c-0.2,1.1-0.8,1.6-1.7,1.6l-2.2,0v2.5h2.2c1.8,0,3.1-0.5,4-1.5c0.6-0.9,0.9-1.8,0.9-2.8v-5
			c0-1-0.3-1.9-0.9-2.8c-0.8-1-2.1-1.5-4-1.5H43V5l2.2,0c0.9,0,1.5,0.6,1.7,1.6V12z"/>
	</g>
	<g>
		<rect x="51" y="2.6" class="st0" width="3.1" height="13.5"/>
		<polygon class="st0" points="54.5,7.2 54.5,10.5 59.3,16.1 63,16.1 63,16.1 56.6,8.8 62.7,2.6 62.7,2.6 58.8,2.6 		"/>
	</g>
	<g>
		<rect x="64" y="2.6" class="st0" width="3.1" height="13.6"/>
		<path class="st0" d="M73.7,9.6c0.6-0.8,0.9-1.7,0.9-2.8V6.7c0-0.9-0.3-1.8-0.9-2.7c-0.8-1-2.1-1.5-4-1.5h-2.2v2.4h2.2
			c0.9,0,1.5,0.6,1.7,1.6v0.2c0,0.9-0.5,1.6-1.4,1.9h-2.5v2.5c1.5,0,2.4,0.1,2.8,0.2c0.4,0.2,0.7,0.6,0.8,1c0.3,1.7,0.4,2.6,0.5,2.7
			c0.3,0.8,0.4,1.2,0.6,1.2h3.2c-0.3-0.3-0.5-0.6-0.6-0.9c-0.1-0.3-0.3-1.2-0.5-2.4l-0.1-0.5c-0.1-0.7-0.2-1.1-0.2-1.2
			c-0.2-0.5-0.5-0.8-0.7-1.1C73.4,9.9,73.6,9.8,73.7,9.6z"/>
	</g>
	<g>
		<polygon class="st0" points="80.2,2.6 76.2,14.2 76.2,16.1 79,16.1 81.9,5.7 81.9,5.7 83.3,10.7 83.3,10.8 81,10.8 80.3,13.3 
			84.1,13.3 85,16.1 88.5,16.1 83.7,2.6 		"/>
	</g>
	<g>
		<rect x="89.1" y="2.6" class="st0" width="3.1" height="13.6"/>
		<rect x="92.7" y="2.6" class="st0" width="6.3" height="2.5"/>
		<rect x="92.7" y="7.7" class="st0" width="5.8" height="2.5"/>
	</g>
	<g>
		<rect x="99.9" y="2.6" class="st0" width="10.1" height="2.5"/>
		<rect x="103.5" y="5.6" class="st0" width="3.1" height="10.5"/>
	</g>
</g>
</svg>
