<?xml version="1.0" encoding="utf-8"?>
<!-- Generator: Adobe Illustrator 24.1.1, SVG Export Plug-In . SVG Version: 6.00 Build 0)  -->
<svg version="1.1" id="Layer_1" xmlns="http://www.w3.org/2000/svg" xmlns:xlink="http://www.w3.org/1999/xlink" x="0px" y="0px"
	 viewBox="0 0 126 52" style="enable-background:new 0 0 126 52;" xml:space="preserve">
<style type="text/css">
	.st0{clip-path:url(#SVGID_2_);}
	.st1{clip-path:url(#SVGID_4_);fill:#FFFFFF;}
</style>
<g>
	<defs>
		<rect id="SVGID_1_" x="2.3" y="3.1" width="121.1" height="46.4"/>
	</defs>
	<clipPath id="SVGID_2_">
		<use xlink:href="#SVGID_1_"  style="overflow:visible;"/>
	</clipPath>
	<g class="st0">
		<defs>
			<rect id="SVGID_3_" x="2.3" y="3.1" width="121.1" height="46.4"/>
		</defs>
		<use xlink:href="#SVGID_3_"  style="overflow:visible;fill:#FFFFFF;"/>
		<clipPath id="SVGID_4_">
			<use xlink:href="#SVGID_3_"  style="overflow:visible;"/>
		</clipPath>
		<polyline class="st1" points="50.8,12.4 50.8,12.4 50.8,12.4 		"/>
		<path class="st1" d="M77.5,5.4h-0.4c-1.9,3.2-5,5.6-8.4,6.7c-7,2.2-14.7-1.6-19.6-9h-0.7c-0.8,9.5-6.3,17.6-14.5,23.2v0.5
			c2.6-0.9,6.5-0.8,8.3,0.4c3,1.8,4.6,5.6,4.6,10.3h0.7c3-12.3,11.6-20.9,21.6-20.2c8.1,0.6,13.6,5.5,16.5,14.8h0.4
			c0.9-1.1,2.7-2.7,4.6-2.9v-0.3C84.8,24.3,78.6,15,77.5,5.4"/>
		<path class="st1" d="M2.3,39.1h3.6c2,0,3.6,1.6,3.6,3.5c0,1.1-0.5,2.1-1.3,2.7l1.8,4.1H6.9l-1.4-3.4H5.1v3.4H2.3V39.1z M5.1,41.6
			v2h0.6c0.5,0,0.9-0.4,0.9-1s-0.4-1-0.9-1H5.1z"/>
		<path class="st1" d="M10.3,44.3c0-4.2,1.8-5.3,4-5.3c2.2,0,4,1.1,4,5.3c0,4.2-1.8,5.2-4,5.2C12.1,49.6,10.3,48.5,10.3,44.3
			 M15.4,44.3c0-2.3-0.6-2.8-1.1-2.8c-0.5,0-1.1,0.4-1.1,2.8c0,2.3,0.6,2.7,1.1,2.7C14.8,47.1,15.4,46.6,15.4,44.3"/>
		<path class="st1" d="M21.7,45.9c0,0.8,0.3,1.1,0.7,1.1c0.4,0,0.7-0.3,0.7-0.7c0-0.5-0.6-0.7-1.2-1c-1.1-0.4-2.7-1.1-2.7-3.1
			c0-1.9,1.5-3.2,3.4-3.2c1.8,0,3.2,1.2,3.2,3.3H23c0-0.6-0.2-0.9-0.6-0.9c-0.4,0-0.6,0.3-0.6,0.6c0,0.4,0.5,0.6,1.2,0.9
			c1.2,0.5,2.8,1.2,2.8,3.2c0,1.9-1.5,3.4-3.5,3.4c-1.8,0-3.4-1.1-3.4-3.6L21.7,45.9z"/>
		<polygon class="st1" points="32.1,43.2 34.9,49.4 31.8,49.4 30.3,45.6 29.7,46.7 29.7,49.4 26.9,49.4 26.9,39.1 29.7,39.1 
			29.7,43 31.8,39.1 34.7,39.1 		"/>
		<rect x="35.5" y="39.1" class="st1" width="2.8" height="10.3"/>
		<polygon class="st1" points="46,49.4 39.8,49.4 39.8,39.1 42.6,39.1 42.6,46.9 46,46.9 		"/>
		<path class="st1" d="M50.6,39.1c2.3,0,4,1.1,4,5.2c0,4-1.7,5.1-4,5.1H47V39.1H50.6z M49.8,41.6v5.3h0.8c0.7,0,1.1-0.5,1.1-2.6
			c0-2.2-0.4-2.7-1.1-2.7H49.8z"/>
		<polygon class="st1" points="62.3,49.4 55.6,49.4 55.6,39.1 62,39.1 62,41.6 58.4,41.6 58.4,43 60.9,43 60.9,45.4 58.4,45.4 
			58.4,46.9 62.3,46.9 		"/>
		<polygon class="st1" points="72.4,45.6 69.4,45.6 69.4,49.4 66.6,49.4 66.6,39.1 73.2,39.1 73.2,41.6 69.4,41.6 69.4,43.3 
			72.4,43.3 		"/>
		<polygon class="st1" points="80.9,49.4 74.2,49.4 74.2,39.1 80.6,39.1 80.6,41.6 77,41.6 77,43 79.5,43 79.5,45.4 77,45.4 
			77,46.9 80.9,46.9 		"/>
		<path class="st1" d="M84.2,45.9c0,0.8,0.3,1.1,0.7,1.1c0.4,0,0.7-0.3,0.7-0.7c0-0.5-0.6-0.7-1.2-1c-1.1-0.4-2.7-1.1-2.7-3.1
			c0-1.9,1.5-3.2,3.4-3.2c1.8,0,3.2,1.2,3.2,3.3h-2.7c0-0.6-0.2-0.9-0.6-0.9c-0.4,0-0.6,0.3-0.6,0.6c0,0.4,0.5,0.6,1.2,0.9
			c1.2,0.5,2.8,1.2,2.8,3.2c0,1.9-1.5,3.4-3.5,3.4c-1.8,0-3.4-1.1-3.4-3.6L84.2,45.9z"/>
		<polygon class="st1" points="88.6,39.1 95.8,39.1 95.8,41.6 93.6,41.6 93.6,49.4 90.8,49.4 90.8,41.6 88.6,41.6 		"/>
		<rect x="96.8" y="39.1" class="st1" width="2.8" height="10.3"/>
		<polygon class="st1" points="108.8,39.1 106,49.4 103.3,49.4 100.6,39.1 103.4,39.1 104.7,45.1 106,39.1 		"/>
		<path class="st1" d="M113.1,47.9h-2l-0.3,1.5h-3l2.8-10.3h2.9l2.8,10.3h-3L113.1,47.9z M111.6,45.5h1.1l-0.5-2.7L111.6,45.5z"/>
		<polygon class="st1" points="123.4,49.4 117.2,49.4 117.2,39.1 120,39.1 120,46.9 123.4,46.9 		"/>
	</g>
</g>
</svg>
