<?xml version="1.0" encoding="utf-8"?>
<!-- Generator: Adobe Illustrator 24.1.1, SVG Export Plug-In . SVG Version: 6.00 Build 0)  -->
<svg version="1.1" id="Layer_1" xmlns="http://www.w3.org/2000/svg" xmlns:xlink="http://www.w3.org/1999/xlink" x="0px" y="0px"
	 viewBox="0 0 102.3 30.6" style="enable-background:new 0 0 102.3 30.6;" xml:space="preserve">
<style type="text/css">
	.st0{fill:#FFFFFF;}
</style>
<g>
	<g>
		<g>
			<path class="st0" d="M38.2,4.3h3l3.5,9.9h-2.9l-0.5-1.5h-3.2l-0.4,1.5h-2.9L38.2,4.3z M38.7,10.8h2l-1-3.2l0,0L38.7,10.8z"/>
			<path class="st0" d="M53.5,3.6h2.7v10.7h-2.7V3.6z"/>
			<path class="st0" d="M57.5,3.6h2.6v3.8c0.5-0.6,1.3-1,2.1-1c1.7,0,2.9,1.3,2.9,4s-1.2,4.1-2.8,4.1c-1,0-1.7-0.4-2.3-1l-0.2,0.9
				h-2.4V3.6H57.5z M61.3,12.5c0.8,0,1.1-0.9,1.1-2.1c0-1.3-0.3-2-1.1-2c-0.5,0-0.8,0.2-1.2,0.6v3C60.5,12.3,60.8,12.5,61.3,12.5z"
				/>
			<path class="st0" d="M69.8,6.3c2.3,0,4,1.6,4,4c0,2.6-1.6,4.1-4,4.1s-4-1.6-4-4.1C65.8,7.9,67.5,6.3,69.8,6.3z M69.8,12.5
				c0.9,0,1.3-0.8,1.3-2.2c0-1.3-0.5-2.1-1.3-2.1s-1.3,0.8-1.3,2.1C68.5,11.7,68.9,12.5,69.8,12.5z"/>
			<path class="st0" d="M74.7,6.5h2.5l0.2,1.1c0.6-1.1,1.3-1.3,2.2-1.3c0.3,0,0.6,0,0.9,0.1l-0.4,2.4c-0.3-0.1-0.6-0.2-1.1-0.2
				c-0.7,0-1.2,0.4-1.6,1.2v4.4h-2.7C74.7,14.2,74.7,6.5,74.7,6.5z"/>
			<path class="st0" d="M81.4,13.7C81.1,13.3,81,13,81,12.6c0-0.5,0.3-1,0.8-1.3c-0.7-0.5-1.1-1.2-1.1-2.1c0-1.7,1.5-2.8,3.5-2.8
				c0.9,0,1.7,0.2,2.3,0.7c0.5-0.4,1.2-0.6,2.3-0.6v1.6c-0.5,0-0.9,0-1.3,0.1c0.1,0.3,0.2,0.7,0.2,1.1c0,1.8-1.7,2.8-3.4,2.8
				c-0.4,0-0.8,0-1.1-0.1c-0.1,0.1-0.2,0.2-0.2,0.3c0,0.3,0.4,0.4,1.8,0.5c2.5,0.1,3.8,0.8,3.8,2.3s-1.3,2.3-4.1,2.3
				c-2.4,0-4-0.6-4-2C80.4,14.5,80.7,14,81.4,13.7z M83.1,14.5c-0.2,0.2-0.3,0.4-0.3,0.6c0,0.4,0.4,0.6,1.6,0.6
				c1.3,0,1.7-0.2,1.7-0.5c0-0.4-0.3-0.5-1.6-0.5C84,14.7,83.5,14.6,83.1,14.5z M85.1,9.1c0-0.7-0.4-1.2-0.9-1.2
				c-0.6,0-0.9,0.5-0.9,1.2s0.4,1.1,0.9,1.1C84.8,10.3,85.1,9.8,85.1,9.1z"/>
			<path class="st0" d="M47.2,18.4c2.3,0,4,1.6,4,4c0,2.5-1.6,4.1-4,4.1s-4-1.6-4-4.1C43.2,20,44.9,18.4,47.2,18.4z M47.2,24.6
				c0.9,0,1.3-0.9,1.3-2.2c0-1.3-0.5-2.1-1.3-2.1s-1.3,0.8-1.3,2.1S46.3,24.6,47.2,24.6z"/>
			<path class="st0" d="M52.1,18.6h2.6l0.1,0.8c0.6-0.5,1.4-0.9,2.2-0.9c1,0,1.6,0.4,2,1c0.8-0.7,1.5-1,2.4-1c1.6,0,2.4,1,2.4,2.8
				v5.2h-2.7v-5.2c0-0.5-0.2-0.8-0.6-0.8c-0.4,0-0.8,0.2-1.1,0.6c0,0.2,0,0.3,0,0.5v4.9h-2.7v-5.2c0-0.5-0.2-0.8-0.6-0.8
				c-0.4,0-0.9,0.3-1.1,0.7v5.3h-2.9V18.6z"/>
			<path class="st0" d="M65,18.6h2.6l0.1,0.8c0.6-0.5,1.4-0.9,2.2-0.9c1,0,1.6,0.4,2,1c0.8-0.7,1.5-1,2.4-1c1.6,0,2.4,1,2.4,2.8v5.2
				H74v-5.2c0-0.5-0.2-0.8-0.6-0.8s-0.8,0.2-1.1,0.6c0,0.2,0,0.3,0,0.5v4.9h-2.7v-5.2c0-0.5-0.2-0.8-0.6-0.8s-0.9,0.3-1.1,0.7v5.3
				h-2.7v-7.9H65z"/>
			<path class="st0" d="M77.8,18.6h2.7v5.2c0,0.5,0.2,0.9,0.7,0.9s0.9-0.3,1.2-0.7v-5.3h2.7v7.7h-2.5l-0.1-0.8c-0.5,0.6-1.4,1-2.3,1
				c-1.7,0-2.4-1-2.4-2.8V18.6z"/>
			<path class="st0" d="M86.4,18.6h2.5l0.1,0.8c0.5-0.5,1.3-1,2.2-1c1.8,0,2.4,1,2.4,2.8v5.1h-2.7v-5.2c0-0.5-0.2-0.8-0.8-0.8
				c-0.4,0-0.9,0.3-1.2,0.7v5.3h-2.7v-7.7H86.4z"/>
			<path class="st0" d="M98.6,18.4c2.2,0,3.7,1.4,3.7,3.5c0,0.4,0,0.8-0.1,1.1h-4.8c0.1,1,0.6,1.4,1.5,1.4c0.7,0,1.4-0.2,2.1-0.6
				l1.1,1.6c-1,0.8-2.2,1.1-3.4,1.1c-2.2,0-4-1.5-4-4.1C94.6,19.9,96.5,18.4,98.6,18.4z M97.4,21.7h2.4c0-0.8-0.3-1.4-1.1-1.4
				C98.1,20.2,97.5,20.7,97.4,21.7z"/>
			<path class="st0" d="M52,12.1V9.2c0-1.7-0.9-2.9-3.3-2.9c-1,0-2.1,0.3-3.2,0.8l-0.4,0.2l0.7,2l0.4-0.2c1-0.5,1.7-0.7,2.4-0.7
				c0.5,0,0.8,0.2,0.8,0.7v0.4c-3.3,0.3-4.4,1.4-4.4,2.9c0,1.2,0.9,2.1,2.3,2.1c1.1,0,1.8-0.4,2.4-1.1c0.5,0.8,1.2,1,2.9,1v-1.7
				C52.2,12.6,52,12.4,52,12.1z M49.4,12.1c-0.2,0.3-0.6,0.5-1.1,0.5c-0.4,0-0.7-0.3-0.7-0.6c0-0.7,0.7-1.1,1.8-1.1V12.1z"/>
		</g>
		<g>
			<path class="st0" d="M35,16.4h2.7v3.8l0,0l2.7-3.8h3L40,21.1l0,0l3.7,5.1h-3.2l-2.8-4l0,0v4H35V16.4z"/>
		</g>
	</g>
	<g>
		<g>
			<g>
				<path class="st0" d="M11.4,15.5c-0.3,0-0.6,0.3-0.6,0.6v4.2c0.4,0.1,0.7,0.2,1.1,0.2H12v-4.4C12,15.8,11.7,15.5,11.4,15.5z"/>
			</g>
			<g>
				<g>
					<path class="st0" d="M16.5,15.7c0-0.6-0.5-1-1.1-1s-1.1,0.5-1.1,1v0.1V20c0.4-0.1,0.7-0.2,1.1-0.2c0.4,0,0.7,0.1,1.1,0.2V15.7
						L16.5,15.7z"/>
				</g>
				<g>
					<path class="st0" d="M15.4,0C6.9,0,0,6.9,0,15.3c0,8.5,6.9,15.3,15.3,15.3c8.5,0,15.3-6.9,15.3-15.3C30.7,6.9,23.8,0,15.4,0z
						 M20.6,6.1c0.1,0.2,0.5,0.2,0.5,0.6c0,0.1,0,0.2-0.1,0.3h-0.8c0-0.1-0.1-0.2-0.1-0.3C20.1,6.2,20.6,6.3,20.6,6.1z M18.6,5.8
						c0.1,0.3,0.7,0.2,0.7,0.7c0,0.1-0.1,0.3-0.2,0.4h-1c-0.1-0.1-0.2-0.2-0.2-0.4C17.9,6.1,18.5,6.1,18.6,5.8z M15,4.6
						c0-0.1-0.1-0.1-0.1-0.2c0-0.3,0.2-0.5,0.5-0.5c0.3,0,0.5,0.2,0.5,0.5c0,0.1,0,0.2-0.1,0.2c0.9,0.1,1.6,0.8,1.6,1.5
						c0,0.4-0.2,0.8-0.5,1H14c-0.3-0.3-0.5-0.7-0.5-1C13.4,5.3,14.1,4.7,15,4.6z M17.1,11h-0.9l-0.1-2.3c0-0.4-0.3-0.7-0.7-0.7
						c-0.4,0-0.7,0.3-0.7,0.7L14.5,11h-0.9l0.3-3.5h2.9L17.1,11z M12.1,5.8c0.1,0.3,0.7,0.2,0.7,0.7c0,0.1-0.1,0.3-0.2,0.4h-1
						c-0.1-0.1-0.2-0.2-0.2-0.4C11.5,6.1,12.1,6.1,12.1,5.8z M10.1,6.1c0.1,0.2,0.5,0.2,0.5,0.6c0,0.1-0.1,0.2-0.1,0.3H9.7
						C9.6,6.9,9.6,6.8,9.6,6.7C9.6,6.3,10,6.3,10.1,6.1z M6.1,17.3c-1.1,0.4-2.2-0.2-2.6-1.2c-0.4-1.1,0.2-2.2,1.2-2.6
						c0.6-0.2,1.1-0.1,1.6,0.1c-0.2,0-0.4,0-0.6,0.1c-0.7,0.3-1.1,1-0.8,1.7c0.3,0.7,1,1.1,1.7,0.8c0.3-0.1,0.6-0.4,0.7-0.6
						C7.4,16.4,6.9,17.1,6.1,17.3z M9.6,7.9L9.6,7.9l0.1-0.6h0.8v0.6h1.2V7.3h1v0.6h0.8L13.2,11H7.5L9.6,7.9z M16,24.6
						c-0.4,0-0.7,0-0.7,0s-0.3,0-0.7,0c-0.9-0.1-1.8-0.2-2.6-0.5c1.1-0.1,2.1-0.7,3.3-0.7c1.2,0,2.1,0.6,3.3,0.7
						C17.8,24.4,16.9,24.5,16,24.6z M21.6,22c-0.3,0.4-0.7,0.7-1,1c-0.6,0.2-1.1,0.3-1.7,0.3c-1.2,0-2.3-0.7-3.5-0.7
						s-2.3,0.7-3.5,0.7c-0.6,0-1.2-0.2-1.7-0.3c-0.4-0.3-0.7-0.6-1-1c-0.1-0.1-0.2-0.2-0.3-0.4c1,0.1,2,0.7,3,0.7
						c1.2,0,2.3-0.7,3.5-0.7s2.3,0.7,3.5,0.7c1.1,0,2-0.5,3-0.7C21.8,21.7,21.7,21.9,21.6,22z M22.9,12.3v1l0,0
						c-0.7,0.6-0.9,1.5-0.9,2.6v4c0.1,0,0.3,0,0.4,0s0.2,0,0.3,0c-0.1,0.4-0.2,0.7-0.4,1c-1.2,0-2.2,0.7-3.5,0.7
						c-1.2,0-2.3-0.7-3.5-0.7s-2.3,0.7-3.5,0.7s-2.3-0.7-3.5-0.7c-0.2-0.3-0.3-0.7-0.4-1c0.1,0,0.2,0,0.4,0c0.1,0,0.3,0,0.4,0v-4
						c0-1.1-0.2-1.9-0.9-2.6l0,0v-1v-0.9h1.5v0.9h1.3v-0.9h1.5v0.9h1.3v-0.9h1.5v0.9h0.6h0.6v-0.9h1.5v0.9h1.3v-0.9h1.5v0.9h1.3
						v-0.9h1.5v0.9H22.9z M17.5,11l-0.3-3.1h0.9V7.3h1v0.6h1.2V7.3h0.8v0.6l0,0l2.1,3.1H17.5z M25.8,16.3l-0.6,1.4l-0.6-1.4
						l-1.5,0.2l1-1.2l-1-1.2l1.5,0.2l0.6-1.4l0.6,1.4l1.5-0.2l-1,1.2l1,1.2L25.8,16.3z"/>
				</g>
				<g>
					<path class="st0" d="M19.4,15.5c-0.3,0-0.6,0.3-0.6,0.6v4.4h0.1c0.4,0,0.7-0.1,1.1-0.2v-4.2C20,15.8,19.7,15.5,19.4,15.5z"/>
					<g>
						<path class="st0" d="M19.3,14.3c-0.6,0-1.1,0.3-1.4,0.7c-0.3-1.2-1.3-2-2.6-2c-1.2,0-2.3,0.9-2.6,2c-0.3-0.4-0.9-0.7-1.4-0.7
							c-1,0-1.8,0.8-1.8,1.7v4c0.1,0,0.3,0.1,0.4,0.1v-2.8V16c0-0.7,0.6-1.3,1.4-1.3c0.7,0,1.3,0.6,1.4,1.3v0.2v1.1v3.1
							c0.1,0,0.3-0.1,0.4-0.1v-4v-0.1v-0.1v-0.4c0-1.2,1-2.2,2.2-2.2s2.2,1,2.2,2.2V16v0.1v0.1v4.1c0.1,0,0.3,0.1,0.4,0.1v-3.1v-1.1
							V16c0-0.7,0.6-1.3,1.4-1.3c0.7,0,1.3,0.6,1.4,1.3v1.2V20c0.1,0,0.3-0.1,0.4-0.1v-4C21.1,15.1,20.3,14.3,19.3,14.3z"/>
					</g>
				</g>
			</g>
		</g>
	</g>
</g>
</svg>
