<?xml version="1.0" encoding="utf-8"?>
<!-- Generator: Adobe Illustrator 24.1.1, SVG Export Plug-In . SVG Version: 6.00 Build 0)  -->
<svg version="1.1" id="Layer_1" xmlns="http://www.w3.org/2000/svg" xmlns:xlink="http://www.w3.org/1999/xlink" x="0px" y="0px"
	 viewBox="0 0 79.3 15.4" style="enable-background:new 0 0 79.3 15.4;" xml:space="preserve">
<style type="text/css">
	.st0{fill:#FFFFFF;}
	.st1{clip-path:url(#SVGID_2_);}
	.st2{clip-path:url(#SVGID_4_);fill:#EF7F24;}
</style>
<rect class="st0" width="79" height="15.4"/>
<g id="Artwork_1_5_">
	<g>
		<g>
			<defs>
				<rect id="SVGID_1_" x="0.1" width="79.2" height="15.4"/>
			</defs>
			<clipPath id="SVGID_2_">
				<use xlink:href="#SVGID_1_"  style="overflow:visible;"/>
			</clipPath>
			<g class="st1">
				<g>
					<defs>
						<rect id="SVGID_3_" x="0.1" width="79.2" height="15.4"/>
					</defs>
					<clipPath id="SVGID_4_">
						<use xlink:href="#SVGID_3_"  style="overflow:visible;"/>
					</clipPath>
					<path class="st2" d="M79.3,0H0.1v15.4h79.2C79.3,15.4,79.3,0,79.3,0z M11.2,2.4L9.7,13h-2l0.9-5.3l-2,3.4H6.2L5.4,7.7L4.3,13
						h-2L4.4,2.4h1.1l1.4,5.3l3-5.3L11.2,2.4z M18.4,2.4L17,10.1c-0.2,1.1-0.6,1.9-1.1,2.4s-1.3,0.7-2.1,0.7c-0.4,0-0.7,0-1-0.1
						s-0.6-0.2-0.8-0.4s-0.4-0.4-0.6-0.7c-0.1-0.3-0.2-0.6-0.2-1c0-0.1,0-0.2,0-0.4c0-0.1,0-0.3,0.1-0.4l1.4-7.7h2.1l-1.4,7.8
						c0,0.1,0,0.1,0,0.2c0,0.1,0,0.2,0,0.3c0,0.2,0,0.3,0.1,0.5c0.1,0.1,0.3,0.2,0.6,0.2s0.5-0.1,0.7-0.3s0.2-0.5,0.3-0.8l1.4-7.8
						h1.9V2.4z M24.1,3l-0.7,1.7c-0.5-0.4-1-0.7-1.5-0.7c-0.3,0-0.6,0.1-0.8,0.3S20.8,4.7,20.8,5s0.1,0.6,0.3,1
						c0.2,0.3,0.4,0.7,0.7,1c0.1,0.2,0.3,0.4,0.5,0.6c0.2,0.2,0.3,0.5,0.4,0.7c0.1,0.3,0.2,0.5,0.3,0.8s0.1,0.6,0.1,0.9
						c0,0.4-0.1,0.8-0.2,1.2c-0.1,0.4-0.3,0.7-0.6,1s-0.6,0.5-0.9,0.7c-0.4,0.2-0.8,0.2-1.3,0.2s-1-0.1-1.4-0.3
						c-0.5-0.2-0.9-0.4-1.3-0.7l0.7-1.8c0.3,0.3,0.6,0.5,1,0.7c0.3,0.2,0.7,0.3,1,0.3s0.6-0.1,0.8-0.3s0.3-0.5,0.3-0.9
						c0-0.3-0.1-0.6-0.3-1c-0.2-0.3-0.4-0.7-0.7-1c-0.1-0.2-0.3-0.4-0.5-0.6c-0.2-0.2-0.3-0.5-0.4-0.7C19.2,6.5,19.1,6.3,19,6
						s-0.1-0.6-0.1-0.9c0-0.5,0.1-0.9,0.2-1.2c0.1-0.4,0.4-0.7,0.6-0.9c0.3-0.3,0.6-0.5,0.9-0.6c0.4-0.1,0.8-0.2,1.2-0.2
						c0.5,0,0.9,0.1,1.3,0.2C23.6,2.6,23.9,2.8,24.1,3 M27.5,2.4L25.6,13h-2.1l1.9-10.6C25.4,2.4,27.5,2.4,27.5,2.4z M34.7,2.4
						l-3.1,5.2l1.2,5.4h-2.2l-0.9-5.1L28.8,13h-2.1l1.9-10.6h2.1L30,7.1l2.5-4.7H34.7z M39.9,3l-0.8,1.7c-0.5-0.4-1-0.7-1.5-0.7
						c-0.3,0-0.6,0.1-0.8,0.3c-0.2,0.2-0.3,0.4-0.3,0.7s0.1,0.6,0.3,1c0.2,0.3,0.4,0.7,0.7,1c0.1,0.2,0.3,0.4,0.5,0.6
						c0.2,0.2,0.3,0.5,0.4,0.7c0.1,0.3,0.2,0.5,0.3,0.8c0.1,0.3,0.1,0.6,0.1,0.9c0,0.4-0.1,0.8-0.2,1.2s-0.3,0.7-0.6,1
						c-0.3,0.3-0.6,0.5-0.9,0.7c-0.4,0.2-0.8,0.2-1.3,0.2c-0.5,0-1-0.1-1.4-0.3c-0.5-0.2-0.9-0.4-1.3-0.7l0.7-1.8
						c0.3,0.3,0.6,0.5,1,0.7c0.3,0.2,0.7,0.3,1,0.3s0.6-0.1,0.8-0.3s0.3-0.5,0.3-0.9c0-0.3-0.1-0.6-0.3-1c-0.2-0.3-0.4-0.7-0.7-1
						c-0.1-0.2-0.3-0.4-0.5-0.6C35.2,7.3,35.1,7,35,6.8c-0.1-0.3-0.2-0.5-0.3-0.8s-0.1-0.6-0.1-0.9c0-0.5,0.1-0.9,0.2-1.2
						c0.1-0.4,0.4-0.7,0.6-0.9c0.3-0.3,0.6-0.5,0.9-0.6c0.4-0.1,0.8-0.2,1.2-0.2c0.5,0,0.9,0.1,1.3,0.2C39.3,2.6,39.6,2.8,39.9,3
						 M46.1,2.4l-0.3,1.9h-1.6l-1.6,8.8h-2.1l1.6-8.8h-1.6l0.3-1.9H46.1z M51,13h-2v-1.8h-1.8L46.5,13h-2l4.4-10.7h1.7L51,13z
						 M58.8,5.2c0,0.3,0,0.7-0.1,1s-0.2,0.6-0.3,0.9c-0.2,0.3-0.3,0.6-0.6,0.8c-0.2,0.3-0.5,0.5-0.8,0.7l0.5,4.4h-2.1l-0.3-3.8h-0.2
						h-0.2c0,0-0.1,0-0.2,0L53.8,13h-2.1l1.9-10.5c0.2,0,0.5-0.1,0.8-0.1s0.7-0.1,1.1-0.1c0.5,0,1,0.1,1.4,0.2
						c0.4,0.2,0.7,0.4,1,0.6c0.3,0.3,0.5,0.6,0.6,0.9C58.7,4.4,58.8,4.7,58.8,5.2 M65.2,2.4l-0.3,1.9h-1.6l-1.6,8.8h-2.1l1.6-8.8
						h-1.6l0.3-1.9H65.2z M70.7,2.4l-0.3,1.9h-2.6l-0.4,2.4h2.2l-0.3,1.8H67l-0.5,2.7h2.6l-0.3,1.9h-4.6l1.9-10.6h4.6V2.4z
						 M76.9,5.2c0,0.3,0,0.7-0.1,1s-0.2,0.6-0.4,0.9c-0.2,0.3-0.3,0.6-0.6,0.8c-0.2,0.3-0.5,0.5-0.8,0.7l0.5,4.4h-2.1l-0.3-3.8H73
						h-0.2c0,0-0.1,0-0.2,0L71.9,13h-2.1l1.9-10.5c0.2,0,0.5-0.1,0.8-0.1s0.7-0.1,1.1-0.1c0.5,0,1,0.1,1.4,0.2
						c0.4,0.2,0.7,0.4,1,0.6c0.3,0.3,0.5,0.6,0.6,0.9S76.9,4.7,76.9,5.2 M74.7,6.2c0.1-0.3,0.1-0.6,0.1-0.9c0-0.4-0.1-0.7-0.3-0.9
						c-0.2-0.2-0.4-0.3-0.8-0.3c-0.1,0-0.1,0-0.2,0c0,0,0,0-0.1,0l-0.6,3.4l0,0l0,0l0,0c0.3,0,0.5-0.1,0.7-0.2
						c0.2-0.1,0.4-0.3,0.6-0.5C74.4,6.7,74.6,6.4,74.7,6.2 M56.6,6.2c0.1-0.3,0.1-0.6,0.1-0.9c0-0.4-0.1-0.7-0.3-0.9
						c-0.2-0.2-0.4-0.3-0.8-0.3c-0.1,0-0.1,0-0.2,0c0,0,0,0-0.1,0l-0.6,3.4l0,0l0,0l0,0c0.3,0,0.5-0.1,0.7-0.2
						C55.6,7.2,55.8,7,56,6.8C56.4,6.7,56.5,6.4,56.6,6.2 M47.8,9.5h1.1V6.4L47.8,9.5z"/>
				</g>
			</g>
		</g>
	</g>
</g>
</svg>
