<?xml version="1.0" encoding="utf-8"?>
<!-- Generator: Adobe Illustrator 24.1.1, SVG Export Plug-In . SVG Version: 6.00 Build 0)  -->
<svg version="1.1" id="Layer_1" xmlns="http://www.w3.org/2000/svg" xmlns:xlink="http://www.w3.org/1999/xlink" x="0px" y="0px"
	 viewBox="0 0 108.7 13.6" style="enable-background:new 0 0 108.7 13.6;" xml:space="preserve">
<style type="text/css">
	.st0{fill:#FFFFFF;}
</style>
<g>
	<g>
		<polygon class="st0" points="3.1,6.1 0,0.9 0,13.6 3.1,13.6 		"/>
		<polygon class="st0" points="11,13.6 2.9,0.1 0,0.1 8.1,13.6 		"/>
		<polygon class="st0" points="7.9,7.7 11,12.8 11,0.1 7.9,0.1 		"/>
	</g>
	<g>
		<path class="st0" d="M18.2,0.1c-1.7,0.1-3.1,0.7-4.3,2C12.6,3.4,12,5,12,6.9s0.6,3.5,1.9,4.8c1.2,1.3,2.6,1.9,4.3,2v-2.5
			c-0.8-0.1-1.5-0.5-2-1.3c-0.7-0.8-1-1.9-1-3.1s0.3-2.2,1-3.1c0.6-0.7,1.3-1.2,2-1.2V0.1z"/>
		<path class="st0" d="M18.7,13.6c1.7-0.1,3.1-0.7,4.4-2S25,8.7,25,6.8S24.4,3.3,23.1,2c-1.2-1.3-2.7-1.9-4.4-2v2.5
			c0.9,0,1.6,0.5,2.2,1.3c0.7,0.8,1,1.9,1,3.1s-0.3,2.2-1,3.1c-0.6,0.8-1.4,1.2-2.2,1.3V13.6z"/>
	</g>
	<g>
		<rect x="25.9" y="0.1" class="st0" width="3.1" height="13.6"/>
		<path class="st0" d="M35.5,7.1c0.6-0.8,0.9-1.7,0.9-2.8V4.2c0-0.9-0.3-1.8-0.9-2.7c-0.8-1-2.1-1.5-4-1.5h-2.2v2.4h2.2
			C32.4,2.4,33,3,33.2,4v0.2c0,0.9-0.5,1.6-1.4,1.9h-2.5v2.5c1.5,0,2.4,0.1,2.8,0.2c0.4,0.2,0.7,0.6,0.8,1c0.3,1.7,0.4,2.6,0.5,2.7
			c0.3,0.8,0.4,1.2,0.6,1.2h3.2c-0.3-0.3-0.5-0.6-0.6-0.9c-0.1-0.3-0.3-1.2-0.5-2.4L36,9.9c-0.1-0.7-0.2-1.1-0.2-1.2
			c-0.2-0.5-0.5-0.8-0.7-1.1C35.3,7.4,35.4,7.3,35.5,7.1z"/>
	</g>
	<g>
		<rect x="38.1" y="0.1" class="st0" width="3.1" height="13.6"/>
		<path class="st0" d="M45.6,9.5c-0.2,1.1-0.8,1.6-1.7,1.6h-2.2v2.5h2.2c1.8,0,3.1-0.5,4-1.5c0.6-0.9,0.9-1.8,0.9-2.8v-5
			c0-1-0.3-1.9-0.9-2.8c-0.8-1-2.1-1.5-4-1.5h-2.2v2.5h2.2c0.9,0,1.5,0.6,1.7,1.6V9.5z"/>
	</g>
	<g>
		<rect x="49.7" y="0.1" class="st0" width="3.1" height="13.5"/>
		<polygon class="st0" points="53.2,4.7 53.2,8 58,13.6 61.7,13.6 61.7,13.6 55.3,6.3 61.4,0.1 61.4,0.1 57.5,0.1 		"/>
	</g>
	<g>
		<rect x="62.7" y="0.1" class="st0" width="3.1" height="13.6"/>
		<path class="st0" d="M72.4,7.1c0.6-0.8,0.9-1.7,0.9-2.8V4.2c0-0.9-0.3-1.8-0.9-2.7c-0.8-1-2.1-1.5-4-1.5h-2.2v2.4h2.2
			c0.9,0,1.5,0.6,1.7,1.6v0.2c0,0.9-0.5,1.6-1.4,1.9h-2.5v2.5c1.5,0,2.4,0.1,2.8,0.2c0.4,0.2,0.7,0.6,0.8,1c0.3,1.7,0.4,2.6,0.5,2.7
			c0.3,0.8,0.4,1.2,0.6,1.2h3.2c-0.3-0.3-0.5-0.6-0.6-0.9c-0.1-0.3-0.3-1.2-0.5-2.4l-0.1-0.5c-0.1-0.7-0.2-1.1-0.2-1.2
			c-0.2-0.5-0.5-0.8-0.7-1.1C72.1,7.4,72.3,7.3,72.4,7.1z"/>
	</g>
	<g>
		<polygon class="st0" points="78.9,0.1 74.9,11.7 74.9,13.6 77.7,13.6 80.6,3.2 80.6,3.2 82,8.2 82,8.3 79.7,8.3 79,10.8 
			82.8,10.8 83.7,13.6 87.2,13.6 82.4,0.1 		"/>
	</g>
	<g>
		<rect x="87.8" y="0.1" class="st0" width="3.1" height="13.6"/>
		<rect x="91.4" y="0.1" class="st0" width="6.3" height="2.5"/>
		<rect x="91.4" y="5.2" class="st0" width="5.8" height="2.5"/>
	</g>
	<g>
		<rect x="98.6" y="0.1" class="st0" width="10.1" height="2.5"/>
		<rect x="102.2" y="3.1" class="st0" width="3.1" height="10.5"/>
	</g>
</g>
</svg>
