<?xml version="1.0" encoding="utf-8"?>
<!-- Generator: Adobe Illustrator 24.1.1, SVG Export Plug-In . SVG Version: 6.00 Build 0)  -->
<svg version="1.1" id="Layer_1" xmlns="http://www.w3.org/2000/svg" xmlns:xlink="http://www.w3.org/1999/xlink" x="0px" y="0px"
	 viewBox="0 0 121.5 46.7" style="enable-background:new 0 0 121.5 46.7;" xml:space="preserve">
<style type="text/css">
	.st0{fill:#FFFFFF;}
</style>
<g>
	<g>
		<g>
			<g>
				<path class="st0" d="M75.5,2.6h-0.4c-1.9,3.2-5,5.6-8.4,6.7c-7,2.2-14.7-1.6-19.6-9h-0.7c-0.8,9.5-6.3,17.6-14.5,23.2V24
					c2.6-0.9,6.5-0.8,8.3,0.4c3,1.8,4.6,5.6,4.6,10.3h0.7c3-12.3,11.6-20.9,21.6-20.2c8.1,0.6,13.6,5.5,16.5,14.8H84
					c0.9-1.1,2.7-2.7,4.6-2.9v-0.3C82.8,21.5,76.6,12.2,75.5,2.6"/>
			</g>
			<g>
				<path class="st0" d="M0.3,36.3h3.6c2,0,3.6,1.6,3.6,3.5c0,1.1-0.5,2.1-1.3,2.7L8,46.6H4.9l-1.4-3.4H3.1v3.4H0.3V36.3z M3.1,38.8
					v2h0.6c0.5,0,0.9-0.4,0.9-1s-0.4-1-0.9-1H3.1z"/>
			</g>
			<g>
				<path class="st0" d="M8.3,41.5c0-4.2,1.8-5.3,4-5.3s4,1.1,4,5.3s-1.8,5.2-4,5.2C10.1,46.8,8.3,45.7,8.3,41.5 M13.4,41.5
					c0-2.3-0.6-2.8-1.1-2.8s-1.1,0.4-1.1,2.8c0,2.3,0.6,2.7,1.1,2.7C12.8,44.3,13.4,43.8,13.4,41.5"/>
			</g>
			<g>
				<path class="st0" d="M19.7,43.1c0,0.8,0.3,1.1,0.7,1.1c0.4,0,0.7-0.3,0.7-0.7c0-0.5-0.6-0.7-1.2-1c-1.1-0.4-2.7-1.1-2.7-3.1
					c0-1.9,1.5-3.2,3.4-3.2c1.8,0,3.2,1.2,3.2,3.3H21c0-0.6-0.2-0.9-0.6-0.9s-0.6,0.3-0.6,0.6c0,0.4,0.5,0.6,1.2,0.9
					c1.2,0.5,2.8,1.2,2.8,3.2c0,1.9-1.5,3.4-3.5,3.4c-1.8,0-3.4-1.1-3.4-3.6H19.7z"/>
			</g>
			<g>
				<polygon class="st0" points="30.1,40.4 32.9,46.6 29.8,46.6 28.3,42.8 27.7,43.9 27.7,46.6 24.9,46.6 24.9,36.3 27.7,36.3 
					27.7,40.2 29.8,36.3 32.7,36.3 				"/>
			</g>
			<g>
				<rect x="33.5" y="36.3" class="st0" width="2.8" height="10.3"/>
			</g>
			<g>
				<polygon class="st0" points="44,46.6 37.8,46.6 37.8,36.3 40.6,36.3 40.6,44.1 44,44.1 				"/>
			</g>
			<g>
				<path class="st0" d="M48.6,36.3c2.3,0,4,1.1,4,5.2c0,4-1.7,5.1-4,5.1H45V36.3H48.6z M47.8,38.8v5.3h0.8c0.7,0,1.1-0.5,1.1-2.6
					c0-2.2-0.4-2.7-1.1-2.7H47.8z"/>
			</g>
			<g>
				<polygon class="st0" points="60.3,46.6 53.6,46.6 53.6,36.3 60,36.3 60,38.8 56.4,38.8 56.4,40.2 58.9,40.2 58.9,42.6 
					56.4,42.6 56.4,44.1 60.3,44.1 				"/>
			</g>
			<g>
				<polygon class="st0" points="70.4,42.8 67.4,42.8 67.4,46.6 64.6,46.6 64.6,36.3 71.2,36.3 71.2,38.8 67.4,38.8 67.4,40.5 
					70.4,40.5 				"/>
			</g>
			<g>
				<polygon class="st0" points="78.9,46.6 72.2,46.6 72.2,36.3 78.6,36.3 78.6,38.8 75,38.8 75,40.2 77.5,40.2 77.5,42.6 75,42.6 
					75,44.1 78.9,44.1 				"/>
			</g>
			<g>
				<path class="st0" d="M82.2,43.1c0,0.8,0.3,1.1,0.7,1.1c0.4,0,0.7-0.3,0.7-0.7c0-0.5-0.6-0.7-1.2-1c-1.1-0.4-2.7-1.1-2.7-3.1
					c0-1.9,1.5-3.2,3.4-3.2c1.8,0,3.2,1.2,3.2,3.3h-2.7c0-0.6-0.2-0.9-0.6-0.9s-0.6,0.3-0.6,0.6c0,0.4,0.5,0.6,1.2,0.9
					c1.2,0.5,2.8,1.2,2.8,3.2c0,1.9-1.5,3.4-3.5,3.4c-1.8,0-3.4-1.1-3.4-3.6H82.2z"/>
			</g>
			<g>
				<polygon class="st0" points="86.6,36.3 93.8,36.3 93.8,38.8 91.6,38.8 91.6,46.6 88.8,46.6 88.8,38.8 86.6,38.8 				"/>
			</g>
			<g>
				<rect x="94.8" y="36.3" class="st0" width="2.8" height="10.3"/>
			</g>
			<g>
				<polygon class="st0" points="106.8,36.3 104,46.6 101.3,46.6 98.6,36.3 101.4,36.3 102.7,42.3 104,36.3 				"/>
			</g>
			<g>
				<path class="st0" d="M111.1,45.1h-2l-0.3,1.5h-3l2.8-10.3h2.9l2.8,10.3h-3L111.1,45.1z M109.6,42.7h1.1l-0.5-2.7L109.6,42.7z"/>
			</g>
			<g>
				<polygon class="st0" points="121.4,46.6 115.2,46.6 115.2,36.3 118,36.3 118,44.1 121.4,44.1 				"/>
			</g>
		</g>
	</g>
</g>
</svg>
