<?xml version="1.0" encoding="utf-8"?>
<!-- Generator: Adobe Illustrator 24.1.1, SVG Export Plug-In . SVG Version: 6.00 Build 0)  -->
<svg version="1.1" id="Layer_1" xmlns="http://www.w3.org/2000/svg" xmlns:xlink="http://www.w3.org/1999/xlink" x="0px" y="0px"
	 viewBox="0 0 110 22" style="enable-background:new 0 0 110 22;" xml:space="preserve">
<style type="text/css">
	.st0{fill:#FFFFFF;}
</style>
<g>
	<g>
		<path class="st0" d="M0.1,1.4h4.4v8.3c0,1.1,0.6,1.9,1.8,1.9c1.2,0,1.8-0.8,1.8-1.9V1.4h4.4v8.3c0,3.8-2.4,5.6-6.2,5.6
			s-6.2-1.8-6.2-5.6V1.4z"/>
		<path class="st0" d="M13.6,4.2h4.1l0.2,1.1c0.7-0.7,1.8-1.4,3-1.4c2.5,0,3.3,1.4,3.3,4v7.1h-4.2V7.8c0-0.5-0.2-0.9-0.8-0.9
			c-0.4,0-0.9,0.3-1.3,0.8v7.3h-4.3V4.2z"/>
		<path class="st0" d="M25.7,14.3c-0.4-0.5-0.6-1.1-0.6-1.6c0-0.7,0.4-1.4,1.2-1.9c-0.9-0.7-1.5-1.7-1.5-2.9c0-2.3,2.1-3.9,4.9-3.9
			c1.3,0,2.4,0.3,3.2,0.9c0.8-0.5,1.8-0.8,3.2-0.8v2.4c-0.7,0-1.3,0.1-1.9,0.2c0.2,0.4,0.2,0.8,0.2,1.3c0,2.5-2.3,3.9-4.9,3.9
			c-0.5,0-1,0-1.4-0.1C28.1,11.7,28,11.9,28,12c0,0.4,0.4,0.5,2.3,0.5c3.7,0.1,5.5,1.1,5.5,3.3c0,2.1-1.8,3.3-5.9,3.3
			c-3.4,0-5.7-0.8-5.7-2.8C24.3,15.4,24.7,14.8,25.7,14.3z M28.3,15.6c-0.2,0.2-0.2,0.4-0.2,0.6c0,0.4,0.4,0.6,1.9,0.6
			c1.6,0,2.1-0.2,2.1-0.5c0-0.4-0.2-0.5-2-0.6C29.4,15.8,28.8,15.7,28.3,15.6z M30.6,7.9c0-0.8-0.3-1.4-1-1.4
			c-0.6,0-0.9,0.5-0.9,1.4c0,0.8,0.4,1.3,0.9,1.3C30.3,9.3,30.6,8.7,30.6,7.9z"/>
		<path class="st0" d="M40.5,1.4h4.8l4.6,13.7h-4.7l-0.5-1.7H41l-0.4,1.7h-4.7L40.5,1.4z M41.9,10.2h2.1l-1-3.7h0L41.9,10.2z"/>
		<path class="st0" d="M56,8.4V8c0-0.6-0.4-0.8-1-0.8c-0.9,0-1.8,0.3-3.5,1.1l-1.4-2.9C51.9,4.5,53.7,4,55.3,4
			c3.5,0,4.9,1.7,4.9,4.2v3.7c0,0.4,0.2,0.5,0.6,0.5v2.7c-2.6,0-3.6-0.2-4.4-1.4c-1,1.1-1.9,1.6-3.4,1.6c-1.8,0-3.1-1.1-3.1-2.9
			C49.9,10.6,50.9,8.9,56,8.4z M54.9,12.5c0.5,0,0.9-0.3,1.1-0.6v-1.5c-1.3,0.1-1.9,0.7-1.9,1.4C54.1,12.2,54.4,12.5,54.9,12.5z"/>
		<path class="st0" d="M61.4,0.3h4.3v14.7h-4.3V0.3z"/>
		<path class="st0" d="M66.8,0.3h4.3v5C71.7,4.5,72.8,4,73.8,4c2.3,0,3.9,1.8,3.9,5.6c0,3.8-1.7,5.7-3.8,5.7c-1.4,0-2.3-0.5-3.2-1.4
			l-0.3,1.2h-3.7V0.3z M72.3,12.2c0.9,0,1.2-1.2,1.2-2.6c0-1.6-0.3-2.5-1.2-2.5c-0.5,0-0.9,0.3-1.2,0.6v4
			C71.4,12,71.8,12.2,72.3,12.2z"/>
		<path class="st0" d="M83.8,4c3.2,0,5.6,2.3,5.6,5.6c0,3.5-2.3,5.7-5.6,5.7c-3.4,0-5.7-2.2-5.7-5.7C78.1,6.3,80.6,4,83.8,4z
			 M83.8,12.3c1,0,1.4-1,1.4-2.7C85.2,8,84.7,7,83.8,7c-0.9,0-1.4,1-1.4,2.6C82.4,11.3,82.8,12.3,83.8,12.3z"/>
		<path class="st0" d="M90.2,4.2h4l0.3,1.4c0.8-1.5,1.9-1.8,2.9-1.8c0.3,0,0.7,0.1,1.1,0.1L98,7.9c-0.3-0.1-0.9-0.2-1.6-0.2
			c-0.9,0-1.5,0.5-2,1.4v6h-4.3V4.2z"/>
		<path class="st0" d="M99.4,14.3c-0.4-0.5-0.6-1.1-0.6-1.6c0-0.7,0.4-1.4,1.2-1.9c-0.9-0.7-1.5-1.7-1.5-2.9c0-2.3,2.1-3.9,4.9-3.9
			c1.3,0,2.4,0.3,3.2,0.9c0.8-0.5,1.8-0.8,3.2-0.8v2.4c-0.7,0-1.3,0.1-1.9,0.2c0.2,0.4,0.2,0.8,0.2,1.3c0,2.5-2.3,3.9-4.9,3.9
			c-0.5,0-1,0-1.4-0.1c-0.2,0.1-0.2,0.2-0.2,0.4c0,0.4,0.4,0.5,2.3,0.5c3.7,0.1,5.5,1.1,5.5,3.3c0,2.1-1.8,3.3-5.9,3.3
			c-3.4,0-5.7-0.8-5.7-2.8C98,15.4,98.4,14.8,99.4,14.3z M102,15.6c-0.2,0.2-0.2,0.4-0.2,0.6c0,0.4,0.4,0.6,1.9,0.6
			c1.6,0,2.1-0.2,2.1-0.5c0-0.4-0.2-0.5-2-0.6C103.1,15.8,102.5,15.7,102,15.6z M104.3,7.9c0-0.8-0.3-1.4-1-1.4
			c-0.6,0-0.9,0.5-0.9,1.4c0,0.8,0.4,1.3,0.9,1.3C104,9.3,104.3,8.7,104.3,7.9z"/>
	</g>
	<g>
		<g>
			<path class="st0" d="M39.2,18.9l-0.4,1.1h-0.5l1.4-3.6h0.6l1.4,3.6H41l-0.4-1.1H39.2z M40.5,18.6l-0.4-1
				c-0.1-0.2-0.2-0.4-0.2-0.7h0c-0.1,0.2-0.1,0.4-0.2,0.7l-0.4,1H40.5z"/>
			<path class="st0" d="M43.8,20.1l0-0.3h0c-0.2,0.2-0.5,0.4-0.9,0.4c-0.6,0-0.9-0.4-0.9-0.7c0-0.6,0.6-1,1.8-1v-0.1
				c0-0.2-0.1-0.6-0.7-0.6c-0.3,0-0.6,0.1-0.8,0.2l-0.1-0.3c0.2-0.1,0.6-0.2,1-0.2c0.9,0,1.1,0.5,1.1,1.1v1c0,0.2,0,0.4,0,0.6H43.8z
				 M43.7,18.8c-0.6,0-1.2,0.1-1.2,0.6c0,0.3,0.2,0.5,0.5,0.5c0.4,0,0.6-0.2,0.7-0.4c0,0,0-0.1,0-0.1V18.8z"/>
			<path class="st0" d="M45.1,16.3h0.5v3.8h-0.5V16.3z"/>
			<path class="st0" d="M46.5,20.1c0-0.2,0-0.4,0-0.7v-3.1H47v1.6h0c0.2-0.3,0.5-0.5,1-0.5c0.7,0,1.2,0.5,1.2,1.3
				c0,0.9-0.7,1.4-1.3,1.4c-0.4,0-0.8-0.1-1-0.5h0l0,0.4H46.5z M47,19c0,0.1,0,0.1,0,0.2c0.1,0.3,0.4,0.6,0.8,0.6
				c0.6,0,0.9-0.4,0.9-1c0-0.5-0.3-1-0.9-1c-0.4,0-0.7,0.2-0.8,0.6c0,0.1,0,0.1,0,0.2V19z"/>
			<path class="st0" d="M52.5,18.8c0,1-0.7,1.4-1.4,1.4c-0.8,0-1.4-0.5-1.4-1.3c0-0.9,0.6-1.4,1.4-1.4C52,17.4,52.5,18,52.5,18.8z
				 M50.2,18.8c0,0.6,0.4,1,0.9,1c0.5,0,0.9-0.4,0.9-1c0-0.4-0.2-1-0.9-1S50.2,18.3,50.2,18.8z"/>
			<path class="st0" d="M53.2,18.3c0-0.3,0-0.6,0-0.8h0.5l0,0.5h0c0.1-0.3,0.5-0.6,0.8-0.6c0.1,0,0.1,0,0.2,0v0.4
				c-0.1,0-0.1,0-0.2,0c-0.4,0-0.6,0.3-0.7,0.6c0,0.1,0,0.1,0,0.2v1.4h-0.5V18.3z"/>
			<path class="st0" d="M57.6,17.5c0,0.2,0,0.4,0,0.7v1.5c0,0.6-0.1,1-0.4,1.2c-0.3,0.2-0.7,0.3-1.1,0.3c-0.3,0-0.7-0.1-1-0.2
				l0.1-0.4c0.2,0.1,0.5,0.2,0.9,0.2c0.5,0,0.9-0.3,0.9-0.9v-0.3h0c-0.2,0.2-0.5,0.4-0.9,0.4c-0.7,0-1.2-0.5-1.2-1.3
				c0-0.9,0.6-1.4,1.3-1.4c0.5,0,0.8,0.2,0.9,0.4h0l0-0.4H57.6z M57.1,18.5c0-0.1,0-0.1,0-0.2c-0.1-0.3-0.4-0.5-0.7-0.5
				c-0.5,0-0.9,0.4-0.9,1c0,0.5,0.3,0.9,0.9,0.9c0.3,0,0.6-0.2,0.7-0.5c0-0.1,0-0.2,0-0.3V18.5z"/>
			<path class="st0" d="M60.3,16.5v2.1c0,0.8,0.4,1.2,0.9,1.2c0.6,0,1-0.4,1-1.2v-2.1h0.5v2.1c0,1.1-0.7,1.6-1.5,1.6
				c-0.8,0-1.5-0.4-1.5-1.5v-2.1H60.3z"/>
			<path class="st0" d="M63.6,18.2c0-0.3,0-0.5,0-0.7h0.5l0,0.4h0c0.1-0.2,0.5-0.5,1-0.5c0.4,0,1,0.2,1,1.1v1.5h-0.5v-1.5
				c0-0.4-0.2-0.8-0.7-0.8c-0.3,0-0.6,0.2-0.7,0.5c0,0.1,0,0.1,0,0.2v1.6h-0.5V18.2z"/>
			<path class="st0" d="M69.5,17.5c0,0.2,0,0.4,0,0.7v1.5c0,0.6-0.1,1-0.4,1.2c-0.3,0.2-0.7,0.3-1.1,0.3c-0.3,0-0.7-0.1-1-0.2
				l0.1-0.4c0.2,0.1,0.5,0.2,0.9,0.2c0.5,0,0.9-0.3,0.9-0.9v-0.3h0c-0.2,0.2-0.5,0.4-0.9,0.4c-0.7,0-1.2-0.5-1.2-1.3
				c0-0.9,0.6-1.4,1.3-1.4c0.5,0,0.8,0.2,0.9,0.4h0l0-0.4H69.5z M68.9,18.5c0-0.1,0-0.1,0-0.2c-0.1-0.3-0.4-0.5-0.7-0.5
				c-0.5,0-0.9,0.4-0.9,1c0,0.5,0.3,0.9,0.9,0.9c0.3,0,0.6-0.2,0.7-0.5c0-0.1,0-0.2,0-0.3V18.5z"/>
			<path class="st0" d="M72.8,16.3v3.1c0,0.2,0,0.5,0,0.7h-0.5l0-0.4h0c-0.2,0.3-0.5,0.5-1,0.5c-0.7,0-1.2-0.5-1.2-1.3
				c0-0.9,0.6-1.4,1.3-1.4c0.4,0,0.7,0.2,0.9,0.4h0v-1.5H72.8z M72.3,18.5c0-0.1,0-0.1,0-0.2c-0.1-0.3-0.4-0.5-0.8-0.5
				c-0.5,0-0.9,0.4-0.9,1c0,0.5,0.3,1,0.9,1c0.4,0,0.7-0.2,0.8-0.6c0-0.1,0-0.1,0-0.2V18.5z"/>
			<path class="st0" d="M76.3,18.8c0,1-0.7,1.4-1.4,1.4c-0.8,0-1.4-0.5-1.4-1.3c0-0.9,0.6-1.4,1.4-1.4C75.8,17.4,76.3,18,76.3,18.8z
				 M74,18.8c0,0.6,0.4,1,0.9,1c0.5,0,0.9-0.4,0.9-1c0-0.4-0.2-1-0.9-1C74.3,17.8,74,18.3,74,18.8z"/>
			<path class="st0" d="M77,18.2c0-0.3,0-0.5,0-0.7h0.5l0,0.4h0c0.2-0.2,0.4-0.5,0.9-0.5c0.4,0,0.7,0.2,0.8,0.5h0
				c0.1-0.1,0.2-0.3,0.3-0.3c0.2-0.1,0.4-0.2,0.6-0.2c0.4,0,1,0.2,1,1.1v1.5h-0.5v-1.5c0-0.5-0.2-0.8-0.6-0.8
				c-0.3,0-0.5,0.2-0.6,0.4c0,0.1,0,0.2,0,0.2v1.6h-0.5v-1.6c0-0.4-0.2-0.7-0.6-0.7c-0.3,0-0.6,0.2-0.7,0.5c0,0.1,0,0.1,0,0.2v1.6
				H77V18.2z"/>
			<path class="st0" d="M81.9,19.6c0.2,0.1,0.4,0.2,0.7,0.2c0.4,0,0.6-0.2,0.6-0.4c0-0.2-0.2-0.3-0.5-0.5c-0.5-0.2-0.8-0.4-0.8-0.7
				c0-0.4,0.4-0.8,1-0.8c0.3,0,0.6,0.1,0.7,0.2l-0.1,0.3c-0.1-0.1-0.3-0.1-0.6-0.1c-0.3,0-0.5,0.2-0.5,0.4c0,0.2,0.2,0.3,0.6,0.4
				c0.5,0.2,0.8,0.4,0.8,0.8c0,0.5-0.4,0.8-1.1,0.8c-0.3,0-0.6-0.1-0.8-0.2L81.9,19.6z"/>
			<path class="st0" d="M84.3,19.6c0.2,0.1,0.4,0.2,0.7,0.2c0.4,0,0.6-0.2,0.6-0.4c0-0.2-0.2-0.3-0.5-0.5c-0.5-0.2-0.8-0.4-0.8-0.7
				c0-0.4,0.4-0.8,1-0.8c0.3,0,0.6,0.1,0.7,0.2l-0.1,0.3c-0.1-0.1-0.3-0.1-0.6-0.1c-0.3,0-0.5,0.2-0.5,0.4c0,0.2,0.2,0.3,0.6,0.4
				c0.5,0.2,0.8,0.4,0.8,0.8c0,0.5-0.4,0.8-1.1,0.8c-0.3,0-0.6-0.1-0.8-0.2L84.3,19.6z"/>
			<path class="st0" d="M87.3,18.7L87.3,18.7c0.1-0.1,0.2-0.2,0.3-0.3l0.9-0.9H89l-1.1,1.1l1.3,1.5h-0.6l-1-1.2l-0.3,0.3v1h-0.5
				v-3.8h0.5V18.7z"/>
			<path class="st0" d="M92.2,18.8c0,1-0.7,1.4-1.4,1.4c-0.8,0-1.4-0.5-1.4-1.3c0-0.9,0.6-1.4,1.4-1.4C91.6,17.4,92.2,18,92.2,18.8z
				 M89.9,18.8c0,0.6,0.4,1,0.9,1c0.5,0,0.9-0.4,0.9-1c0-0.4-0.2-1-0.9-1C90.2,17.8,89.9,18.3,89.9,18.8z"/>
			<path class="st0" d="M92.9,16.3h0.5v3.8h-0.5V16.3z"/>
			<path class="st0" d="M94.6,18.9c0,0.6,0.5,0.9,1,0.9c0.4,0,0.6-0.1,0.8-0.1l0.1,0.3c-0.2,0.1-0.5,0.2-1,0.2
				c-0.9,0-1.4-0.5-1.4-1.3c0-0.8,0.5-1.4,1.4-1.4c1,0,1.2,0.7,1.2,1.2c0,0.1,0,0.2,0,0.2H94.6z M96.1,18.5c0-0.3-0.1-0.8-0.7-0.8
				c-0.5,0-0.8,0.4-0.8,0.8H96.1z"/>
		</g>
	</g>
</g>
</svg>
